<?xml version="1.0" encoding="UTF-8"?>
<!DOCTYPE svg PUBLIC "-//W3C//DTD SVG 1.1//EN" "http://www.w3.org/Graphics/SVG/1.1/DTD/svg11.dtd">
<!-- Creator: CorelDRAW -->
<svg xmlns="http://www.w3.org/2000/svg" xml:space="preserve" width="210mm" height="297mm" style="shape-rendering:geometricPrecision; text-rendering:geometricPrecision; image-rendering:optimizeQuality; fill-rule:evenodd; clip-rule:evenodd"
viewBox="0 0 210 297"
 xmlns:xlink="http://www.w3.org/1999/xlink">
 <defs>
  <style type="text/css">
   <![CDATA[
    .str1 {stroke:white;stroke-width:0.706}
    .str2 {stroke:#007CC3;stroke-width:2.8222;stroke-linejoin:round}
    .str0 {stroke:#E77817;stroke-width:2.8222;stroke-linejoin:round}
    .fil2 {fill:none}
    .fil0 {fill:#1F1A17;fill-rule:nonzero}
    .fil1 {fill:#E77817;fill-rule:nonzero}
   ]]>
  </style>
 </defs>
 <g id="Layer_x0020_1">
  <metadata id="CorelCorpID_0Corel-Layer"/>
  <g id="_153485008">
   <path id="_153679304" class="fil0" d="M105.185 166.86l-5.9999 -13.328 3.5432 0 3.2691 7.6796 3.4852 -7.6796 3.5786 0 -6.4416 13.328 -1.4346 0zm5.7072 -0.1128l0 -13.2152 3.411 0 0 13.2152 -3.411 0zm2.6959 -1.0478l0 -2.9403c0.9962,0.619 1.8345,1.0478 2.518,1.296 0.6834,0.2451 1.3444,0.3676 1.9892,0.3676 0.648,0 1.138,-0.1 1.4733,-0.2966 0.3321,-0.1999 0.4998,-0.4933 0.4998,-0.8834 0,-0.316 -0.1032,-0.5707 -0.3128,-0.7609 -0.2063,-0.1934 -0.6931,-0.4223 -1.454,-0.6867 -1.8828,-0.6609 -3.1789,-1.3347 -3.8849,-2.0247 -0.7093,-0.6899 -1.064,-1.5701 -1.064,-2.6404 0,-1.1252 0.4611,-2.0408 1.3831,-2.7469 0.9221,-0.7061 2.1247,-1.0575 3.6045,-1.0575 0.748,0 1.4992,0.0903 2.2568,0.2741 0.7544,0.1837 1.5024,0.4513 2.2375,0.8027l0 2.7114c-0.8866,-0.4481 -1.683,-0.777 -2.389,-0.9897 -0.7061,-0.216 -1.3477,-0.3224 -1.928,-0.3224 -0.6287,0 -1.109,0.0902 -1.4379,0.274 -0.3321,0.1838 -0.4965,0.4449 -0.4965,0.7834 0,0.2773 0.1483,0.5352 0.4449,0.7803 0.2934,0.2418 0.7415,0.4707 1.3412,0.6931 0.1257,0.0484 0.316,0.1225 0.5739,0.216 1.2606,0.4675 2.1633,0.8673 2.7114,1.1994 0.5739,0.3514 1.0059,0.806 1.2993,1.3605 0.2933,0.5545 0.4384,1.2026 0.4384,1.9441 0,1.2219 -0.461,2.1826 -1.3831,2.8822 -0.922,0.6997 -2.202,1.0479 -3.8398,1.0479 -0.8189,0 -1.612,-0.1064 -2.3761,-0.3224 -0.7641,-0.2128 -1.4991,-0.5352 -2.2052,-0.9608z"/>
   <path id="_153679784" class="fil1" d="M129.451 166.341c-0.4223,0.1966 -0.8672,0.3417 -1.338,0.4352 -0.4674,0.0935 -0.9768,0.1419 -1.5249,0.1419 -1.6056,0 -2.8758,-0.4159 -3.814,-1.2509 -0.9382,-0.8351 -1.4089,-1.9635 -1.4089,-3.3885 0,-1.4089 0.4642,-2.5437 1.3928,-3.4013 0.9285,-0.8544 2.1697,-1.2832 3.7172,-1.2832 0.4901,0 0.9705,0.0484 1.4347,0.1451 0.4675,0.0999 0.9285,0.245 1.3896,0.4417l0 2.1988c-0.4772,-0.1935 -0.9156,-0.3386 -1.309,-0.4321 -0.3933,-0.0934 -0.7576,-0.1418 -1.0897,-0.1418 -0.806,0 -1.4347,0.2192 -1.8893,0.6577 -0.4545,0.4352 -0.6802,1.0413 -0.6802,1.8151 0,0.7899 0.2321,1.3992 0.6931,1.828 0.4643,0.432 1.1252,0.6481 1.9893,0.6481 0.3707,0 0.7544,-0.0484 1.1542,-0.1483 0.3965,-0.0968 0.8221,-0.2451 1.2831,-0.4482l0 2.1827z"/>
  </g>
  <rect class="fil2 str0" x="106.887" y="124.438" width="19.8156" height="19.8156"/>
  <rect class="fil2 str1" x="101.933" y="129.392" width="6.6052" height="6.6052"/>
  <g id="_153371000">
   <rect id="_153371528" class="fil2 str1" x="101.933" y="135.997" width="6.6052" height="6.6052"/>
   <rect id="_153371456" class="fil2 str1" x="101.933" y="142.602" width="6.6052" height="6.6052"/>
   <rect id="_153371384" class="fil2 str1" x="108.539" y="129.392" width="6.6052" height="6.6052"/>
   <rect id="_153371312" class="fil2 str1" x="108.539" y="135.997" width="6.6052" height="6.6052"/>
   <rect id="_153371240" class="fil2 str1" x="108.539" y="142.602" width="6.6052" height="6.6052"/>
   <rect id="_153371168" class="fil2 str1" x="115.144" y="129.392" width="6.6052" height="6.6052"/>
   <rect id="_153371096" class="fil2 str1" x="115.144" y="135.997" width="6.6052" height="6.6052"/>
   <rect id="_153371024" class="fil2 str1" x="115.144" y="142.602" width="6.6052" height="6.6052"/>
  </g>
  <rect class="fil2 str2" x="101.933" y="129.392" width="19.8156" height="19.8156"/>
  <polygon class="fil0" points="141.877,166.86 135.877,153.532 139.42,153.532 142.689,161.212 146.174,153.532 149.753,153.532 143.312,166.86 "/>
  <polygon id="1" class="fil0" points="147.584,166.748 147.584,153.532 150.995,153.532 150.995,166.748 "/>
  <path id="12" class="fil0" d="M150.28 165.7l0 -2.9403c0.9962,0.619 1.8345,1.0478 2.518,1.296 0.6834,0.2451 1.3444,0.3676 1.9892,0.3676 0.648,0 1.138,-0.1 1.4733,-0.2966 0.3321,-0.1999 0.4998,-0.4933 0.4998,-0.8834 0,-0.316 -0.1032,-0.5707 -0.3128,-0.7609 -0.2063,-0.1934 -0.6931,-0.4223 -1.454,-0.6867 -1.8828,-0.6609 -3.1789,-1.3347 -3.8849,-2.0247 -0.7093,-0.6899 -1.064,-1.5701 -1.064,-2.6404 0,-1.1252 0.4611,-2.0408 1.3831,-2.7469 0.9221,-0.7061 2.1247,-1.0575 3.6045,-1.0575 0.748,0 1.4992,0.0903 2.2568,0.2741 0.7544,0.1837 1.5024,0.4513 2.2375,0.8027l0 2.7114c-0.8866,-0.4481 -1.683,-0.777 -2.389,-0.9897 -0.7061,-0.216 -1.3477,-0.3224 -1.928,-0.3224 -0.6287,0 -1.109,0.0902 -1.4379,0.274 -0.3321,0.1838 -0.4965,0.4449 -0.4965,0.7834 0,0.2773 0.1483,0.5352 0.4449,0.7803 0.2934,0.2418 0.7415,0.4707 1.3412,0.6931 0.1257,0.0484 0.316,0.1225 0.5739,0.216 1.2606,0.4675 2.1633,0.8673 2.7114,1.1994 0.5739,0.3514 1.0059,0.806 1.2993,1.3605 0.2933,0.5545 0.4384,1.2026 0.4384,1.9441 0,1.2219 -0.461,2.1826 -1.3831,2.8822 -0.922,0.6997 -2.202,1.0479 -3.8398,1.0479 -0.8189,0 -1.612,-0.1064 -2.3761,-0.3224 -0.7641,-0.2128 -1.4991,-0.5352 -2.2052,-0.9608z"/>
  <path id="123" class="fil1" d="M166.143 166.341c-0.4223,0.1966 -0.8672,0.3417 -1.338,0.4352 -0.4674,0.0935 -0.9768,0.1419 -1.5249,0.1419 -1.6056,0 -2.8758,-0.4159 -3.814,-1.2509 -0.9382,-0.8351 -1.4089,-1.9635 -1.4089,-3.3885 0,-1.4089 0.4642,-2.5437 1.3928,-3.4013 0.9285,-0.8544 2.1697,-1.2832 3.7172,-1.2832 0.4901,0 0.9705,0.0484 1.4347,0.1451 0.4675,0.0999 0.9285,0.245 1.3896,0.4417l0 2.1988c-0.4772,-0.1935 -0.9156,-0.3386 -1.309,-0.4321 -0.3933,-0.0934 -0.7576,-0.1418 -1.0897,-0.1418 -0.806,0 -1.4347,0.2192 -1.8893,0.6577 -0.4545,0.4352 -0.6802,1.0413 -0.6802,1.8151 0,0.7899 0.2321,1.3992 0.6931,1.828 0.4643,0.432 1.1252,0.6481 1.9893,0.6481 0.3707,0 0.7544,-0.0484 1.1542,-0.1483 0.3965,-0.0968 0.8221,-0.2451 1.2831,-0.4482l0 2.1827z"/>
  <rect class="fil2 str0" x="143.579" y="124.438" width="19.8156" height="19.8156"/>
  <rect class="fil2 str1" x="138.625" y="129.392" width="6.6052" height="6.6052"/>
  <g id="_69779984">
   <rect id="_69619960" class="fil2 str1" x="138.625" y="135.997" width="6.6052" height="6.6052"/>
   <rect id="_69619480" class="fil2 str1" x="138.625" y="142.602" width="6.6052" height="6.6052"/>
   <rect id="_69618712" class="fil2 str1" x="145.23" y="129.392" width="6.6052" height="6.6052"/>
   <rect id="_69619216" class="fil2 str1" x="145.23" y="135.997" width="6.6052" height="6.6052"/>
   <rect id="_69780464" class="fil2 str1" x="145.23" y="142.602" width="6.6052" height="6.6052"/>
   <rect id="_69782432" class="fil2 str1" x="151.836" y="129.392" width="6.6052" height="6.6052"/>
   <rect id="_69782456" class="fil2 str1" x="151.836" y="135.997" width="6.6052" height="6.6052"/>
   <rect id="_69780608" class="fil2 str1" x="151.836" y="142.602" width="6.6052" height="6.6052"/>
  </g>
  <rect class="fil2 str2" x="138.625" y="129.392" width="19.8156" height="19.8156"/>
  <path class="fil0" d="M108.332 174.558c-0.0465,0.0959 -0.1072,0.182 -0.182,0.2568 -0.0734,0.0734 -0.1566,0.1369 -0.2455,0.1891 -0.0889,0.0522 -0.1835,0.0931 -0.2837,0.1199 -0.0987,0.0282 -0.1975,0.0424 -0.2977,0.0424 -0.1651,0 -0.3161,-0.0325 -0.4544,-0.0974 -0.1383,-0.0649 -0.2568,-0.151 -0.3556,-0.2582 -0.0988,-0.1087 -0.1764,-0.2329 -0.2314,-0.3754 -0.0551,-0.1411 -0.0833,-0.2907 -0.0833,-0.4473 0,-0.1905 0.0381,-0.3669 0.1143,-0.5292 0.0762,-0.1637 0.1778,-0.3048 0.3062,-0.4262 0.1284,-0.1213 0.2766,-0.2159 0.4445,-0.285 0.168,-0.0691 0.3458,-0.1044 0.5334,-0.1044 0.0904,0 0.1821,0.0084 0.2752,0.0254 0.0917,0.0169 0.182,0.048 0.2695,0.0945 0.0395,0.0198 0.0664,0.0452 0.0819,0.0776 0.0141,0.0311 0.0226,0.0621 0.0226,0.0932 0,0.0494 -0.0198,0.1002 -0.0579,0.1538 -0.0395,0.055 -0.103,0.103 -0.1905,0.1467l-0.0212 0c-0.1016,-0.1044 -0.1989,-0.1806 -0.2935,-0.2314 -0.0931,-0.0494 -0.2018,-0.0734 -0.326,-0.0734 -0.1157,0 -0.2173,0.0226 -0.3048,0.0692 -0.086,0.048 -0.158,0.11 -0.2159,0.1862 -0.0578,0.0777 -0.103,0.1666 -0.1326,0.2667 -0.031,0.1016 -0.0452,0.2047 -0.0452,0.3119 0,0.1355 0.0198,0.2653 0.0593,0.3895 0.0395,0.1242 0.0974,0.2328 0.1722,0.3259 0.0733,0.0946 0.1651,0.1694 0.2751,0.2258 0.1087,0.0565 0.2329,0.0847 0.374,0.0847 0.1312,0 0.2582,-0.0282 0.3796,-0.0833 0.1213,-0.055 0.2201,-0.1397 0.2935,-0.2554l0.1199 0.1073z"/>
  <path id="1" class="fil0" d="M110.511 175.108c0.0056,-0.0508 0.0099,-0.1087 0.0127,-0.1764 0.0028,-0.0677 0.0042,-0.1256 0.0042,-0.175 -0.1439,0.1284 -0.2977,0.23 -0.4614,0.3006 -0.1637,0.072 -0.3218,0.1087 -0.4728,0.1087 -0.1016,0 -0.1961,-0.017 -0.2808,-0.0508 -0.086,-0.0325 -0.1608,-0.0847 -0.2243,-0.1539 -0.0635,-0.0705 -0.1129,-0.1608 -0.1482,-0.2709 -0.0353,-0.1101 -0.0536,-0.2427 -0.0536,-0.3979l0 -0.9878c0,-0.0762 -0.0043,-0.1369 -0.0127,-0.182 -0.0085,-0.0438 -0.0254,-0.0791 -0.0522,-0.1045 -0.0254,-0.0268 -0.0621,-0.0465 -0.1115,-0.0578 -0.048,-0.0127 -0.1115,-0.0254 -0.1919,-0.0395l-0.0085 -0.12c0.0889,-0.0113 0.1764,-0.024 0.2625,-0.0381 0.0875,-0.0127 0.1679,-0.0268 0.2441,-0.0409 0.0762,-0.0141 0.1425,-0.0268 0.199,-0.0409 0.0564,-0.0141 0.1002,-0.0268 0.1298,-0.0381l0.0409 0.0338c-0.0085,0.0692 -0.0141,0.1426 -0.0183,0.2216 -0.0043,0.0776 -0.0085,0.1552 -0.0127,0.2286 -0.0043,0.0748 -0.0071,0.1453 -0.0071,0.2131 -0.0014,0.0677 -0.0028,0.1256 -0.0028,0.1764l0 0.6194c0,0.1299 0.0127,0.2399 0.0395,0.3288 0.0254,0.0889 0.0607,0.1623 0.1058,0.2173 0.0438,0.0551 0.096,0.0946 0.1567,0.1172 0.0606,0.024 0.1256,0.0352 0.1947,0.0352 0.1129,0 0.2286,-0.0239 0.3486,-0.0719 0.1199,-0.048 0.2328,-0.1129 0.3372,-0.1919l0 -1.2658c0,-0.0762 -0.0042,-0.1369 -0.0127,-0.182 -0.0085,-0.0438 -0.0254,-0.0791 -0.0536,-0.1045 -0.0268,-0.0268 -0.0677,-0.0465 -0.1214,-0.0578 -0.0536,-0.0127 -0.127,-0.0254 -0.2173,-0.0395l-0.0084 -0.12c0.0931,-0.0113 0.1862,-0.024 0.2794,-0.0381 0.0917,-0.0127 0.1763,-0.0282 0.254,-0.0423 0.0776,-0.0155 0.1439,-0.0296 0.2017,-0.0423 0.0579,-0.0113 0.1002,-0.024 0.1242,-0.0353l0.0466 0.0338c-0.0085,0.0692 -0.0155,0.1426 -0.0212,0.2216 -0.0056,0.0776 -0.0099,0.1552 -0.0141,0.2286 -0.0042,0.0748 -0.007,0.1453 -0.0085,0.2131 -0.0014,0.0677 -0.0028,0.1256 -0.0028,0.1764l0 0.9623c0,0.0805 0.0043,0.1426 0.0127,0.1863 0.0085,0.0438 0.0268,0.079 0.0565,0.103 0.0282,0.0254 0.0705,0.0438 0.1256,0.0565 0.055,0.0127 0.1312,0.0254 0.2271,0.0395l0.017 0.1199c-0.0833,0.0085 -0.1679,0.0184 -0.254,0.0311 -0.0875,0.0113 -0.1694,0.0254 -0.2484,0.0381 -0.079,0.0141 -0.1496,0.0296 -0.2131,0.0465 -0.0635,0.0156 -0.1114,0.0297 -0.1439,0.041l-0.0423 -0.0325z"/>
  <path id="12" class="fil0" d="M113.088 175.083c-0.0452,0 -0.0974,0 -0.1595,-0.0014 -0.0621,-0.0014 -0.1298,-0.0028 -0.2004,-0.0028 -0.0719,0 -0.1453,0 -0.2201,-0.0014 -0.0734,-0.0015 -0.1439,-0.0029 -0.2102,-0.0029 -0.1073,0 -0.2103,0.0014 -0.3105,0.0043 -0.0988,0.0028 -0.1877,0.0042 -0.2639,0.0042l-0.0127 -0.1326c0.0903,-0.0085 0.1637,-0.0198 0.2173,-0.0353 0.0537,-0.0141 0.0946,-0.0395 0.1242,-0.0762 0.0282,-0.0353 0.048,-0.0847 0.0579,-0.1468 0.0084,-0.0621 0.0141,-0.1453 0.0141,-0.2497l0 -1.0711c0,-0.0776 -0.0042,-0.1383 -0.0127,-0.182 -0.0085,-0.0438 -0.0254,-0.079 -0.0522,-0.1059 -0.0254,-0.0254 -0.0649,-0.0451 -0.1171,-0.0592 -0.0523,-0.0141 -0.1228,-0.0282 -0.2103,-0.0409l-0.0127 -0.1158c0.0748,-0.0141 0.151,-0.0296 0.2314,-0.0479 0.079,-0.0184 0.1567,-0.0367 0.2314,-0.0579 0.0748,-0.0212 0.144,-0.0409 0.2089,-0.0621 0.0649,-0.0211 0.1171,-0.0395 0.1594,-0.0564l0.0494 0.0338c-0.0141,0.0847 -0.0225,0.1708 -0.0254,0.254 -0.0028,0.0847 -0.0042,0.168 -0.0042,0.2498 0.0889,-0.1072 0.1693,-0.1961 0.2427,-0.2667 0.072,-0.0691 0.1397,-0.1242 0.2004,-0.1651 0.0607,-0.0395 0.1157,-0.0677 0.1665,-0.0818 0.0522,-0.0156 0.1016,-0.024 0.151,-0.024 0.072,0 0.1383,0.0183 0.199,0.055 0.0606,0.0353 0.0903,0.0946 0.0903,0.1778 0,0.055 -0.0268,0.1157 -0.0819,0.1806 -0.055,0.0664 -0.1284,0.127 -0.2187,0.1821 -0.0508,-0.0438 -0.1016,-0.0776 -0.1552,-0.1002 -0.0536,-0.024 -0.1129,-0.0353 -0.1764,-0.0353 -0.0635,0 -0.1327,0.0268 -0.206,0.0818 -0.0748,0.0551 -0.1355,0.1355 -0.1821,0.2399 -0.0141,0.0311 -0.0225,0.0579 -0.0254,0.0805 -0.0028,0.024 -0.0042,0.055 -0.0042,0.0931l0 1.0132c0,0.0663 0.0056,0.1185 0.0155,0.1594 0.0085,0.0396 0.0311,0.0706 0.0678,0.0932 0.0352,0.0211 0.0874,0.0367 0.1566,0.0451 0.0691,0.0085 0.1637,0.0156 0.285,0.0212l-0.007 0.1524z"/>
  <path id="123" class="fil0" d="M114.864 175.162c-0.1185,-0.3344 -0.2413,-0.6547 -0.3697,-0.9638 -0.1284,-0.309 -0.2582,-0.6166 -0.3909,-0.9257 -0.0353,-0.0832 -0.0677,-0.1495 -0.0974,-0.1989 -0.0282,-0.0494 -0.062,-0.0875 -0.0987,-0.1157 -0.0367,-0.0269 -0.0819,-0.0466 -0.1327,-0.0579 -0.0508,-0.0113 -0.1157,-0.0198 -0.1961,-0.024l0.0084 -0.1538c0.0904,0 0.1934,0.0014 0.3063,0.0042 0.1128,0.0029 0.2314,0.0043 0.3556,0.0043 0.1072,0 0.206,-0.0014 0.2949,-0.0043 0.0903,-0.0028 0.175,-0.0042 0.254,-0.0042l0.0084 0.1369c-0.11,0.0141 -0.1876,0.0296 -0.2314,0.0494 -0.0437,0.0197 -0.0663,0.0522 -0.0663,0.0987 0,0.0226 0.0056,0.0494 0.0155,0.0805 0.0085,0.0324 0.0212,0.0677 0.0339,0.1058l0.5292 1.3194 0.5588 -1.3279c0.0141,-0.0352 0.0254,-0.0677 0.0352,-0.0973 0.0099,-0.0282 0.0142,-0.0536 0.0142,-0.0762 0,-0.0438 -0.024,-0.0776 -0.072,-0.103 -0.048,-0.0254 -0.1341,-0.0395 -0.2582,-0.0452l0.0084 -0.1411c0.0847,0 0.1694,0.0014 0.2512,0.0042 0.0833,0.0029 0.1877,0.0043 0.3147,0.0043 0.0959,0 0.1806,-0.0014 0.254,-0.0043 0.0734,-0.0028 0.1439,-0.0042 0.2131,-0.0042l0.0084 0.1326c-0.0832,0.0113 -0.1496,0.0226 -0.1989,0.0367 -0.0494,0.0141 -0.0932,0.0353 -0.1299,0.0649 -0.0367,0.0283 -0.0705,0.0678 -0.1016,0.1172 -0.0296,0.0494 -0.0663,0.1157 -0.1072,0.1989 -0.0494,0.096 -0.1058,0.2103 -0.1679,0.3429 -0.0621,0.1327 -0.127,0.278 -0.1976,0.4375 -0.0705,0.1609 -0.1439,0.333 -0.2215,0.5179 -0.0776,0.1848 -0.1553,0.3753 -0.2357,0.5743l-0.1905 0.0169z"/>
  <path id="1234" class="fil0" d="M117.928 173.748c0.0028,-0.0198 0.0042,-0.0438 0.0042,-0.0706l0 -0.302c0,-0.1411 -0.0339,-0.2568 -0.1002,-0.3499 -0.0677,-0.0917 -0.1764,-0.1383 -0.3246,-0.1383 -0.0804,0 -0.1481,0.0155 -0.2046,0.0437 -0.0564,0.0297 -0.1044,0.0664 -0.1411,0.1143 -0.0367,0.0466 -0.0649,0.1002 -0.0832,0.1609 -0.017,0.0607 -0.0268,0.1242 -0.0268,0.1905 -0.0438,0.0353 -0.1045,0.0536 -0.1821,0.0536 -0.0621,0 -0.1227,-0.0141 -0.1792,-0.0437 -0.0564,-0.0282 -0.0847,-0.072 -0.0847,-0.1298 0,-0.0452 0.017,-0.0903 0.0523,-0.1369 0.0338,-0.0466 0.079,-0.0931 0.1354,-0.1383 0.0565,-0.0452 0.12,-0.0889 0.1891,-0.1298 0.0677,-0.0424 0.1383,-0.0776 0.2103,-0.1087 0.1848,-0.079 0.3669,-0.1199 0.5461,-0.1199 0.0875,0 0.1707,0.0127 0.2469,0.0353 0.0776,0.0239 0.1454,0.0606 0.2032,0.1114 0.0579,0.0522 0.103,0.1172 0.1369,0.1976 0.0325,0.079 0.0494,0.175 0.0494,0.285 0,0.1651 -0.0028,0.3556 -0.0085,0.573 -0.0056,0.2159 -0.0084,0.4557 -0.0084,0.721 0,0.1073 0.0211,0.1919 0.062,0.2512 0.041,0.0607 0.0988,0.0917 0.1736,0.0917 0.0663,0 0.1383,-0.024 0.2145,-0.0705l0.0748 0.1115c-0.0635,0.0606 -0.1411,0.11 -0.2328,0.1495 -0.0932,0.0381 -0.1863,0.0579 -0.2794,0.0579 -0.096,0 -0.1849,-0.0268 -0.2667,-0.079 -0.0819,-0.0522 -0.1355,-0.1426 -0.1637,-0.2681 -0.0268,0.0183 -0.0706,0.0479 -0.1284,0.086 -0.0579,0.0381 -0.1228,0.0776 -0.1976,0.1186 -0.0748,0.0395 -0.1552,0.0748 -0.2399,0.1044 -0.0861,0.031 -0.1665,0.0466 -0.2441,0.0466 -0.0903,0 -0.1736,-0.017 -0.2484,-0.0508 -0.0748,-0.0325 -0.1383,-0.0777 -0.1919,-0.1341 -0.0536,-0.0564 -0.0945,-0.1214 -0.1242,-0.1933 -0.0282,-0.0734 -0.0437,-0.151 -0.0437,-0.2343 0,-0.1411 0.0409,-0.261 0.1228,-0.3612 0.0804,-0.1016 0.1876,-0.1792 0.3203,-0.2343 0.0959,-0.0381 0.2243,-0.0776 0.3866,-0.1171 0.1609,-0.0409 0.3528,-0.0719 0.5758,-0.0931zm-0.0071 0.8636c0,-0.1157 0.0014,-0.2286 0.0042,-0.3387 0.0015,-0.11 0.0029,-0.2229 0.0029,-0.3386 -0.0734,0.007 -0.1496,0.0183 -0.2244,0.031 -0.0762,0.0113 -0.1496,0.0282 -0.2216,0.0466 -0.0719,0.0197 -0.1397,0.0437 -0.2032,0.0748 -0.062,0.0296 -0.1171,0.0663 -0.1608,0.1072 -0.0692,0.0607 -0.103,0.1397 -0.103,0.2357 0,0.1157 0.0296,0.213 0.0889,0.2935 0.0592,0.0804 0.151,0.1199 0.2751,0.1199 0.0875,0 0.1807,-0.0212 0.2766,-0.0621 0.096,-0.0409 0.1849,-0.0973 0.2653,-0.1693z"/>
  <path id="12345" class="fil0" d="M120.595 173.429c-0.0085,-0.0847 -0.0296,-0.1651 -0.0649,-0.2371 -0.0339,-0.0734 -0.079,-0.1369 -0.1355,-0.1891 -0.0564,-0.0522 -0.1228,-0.0931 -0.1976,-0.1213 -0.0733,-0.0297 -0.1538,-0.0438 -0.2384,-0.0438 -0.0537,0 -0.103,0.0085 -0.151,0.0254 -0.0494,0.0155 -0.0917,0.0395 -0.1284,0.0706 -0.0381,0.0296 -0.0678,0.0677 -0.0889,0.1129 -0.0226,0.0451 -0.0339,0.0973 -0.0339,0.1552 0,0.0691 0.0183,0.1284 0.0522,0.1792 0.0339,0.0522 0.0804,0.0974 0.1369,0.1369 0.0564,0.0395 0.1213,0.0748 0.1933,0.1058 0.0734,0.0296 0.1482,0.0607 0.2258,0.0903 0.0861,0.0367 0.1707,0.0748 0.254,0.1143 0.0847,0.0395 0.1595,0.0861 0.2258,0.1397 0.0663,0.0551 0.1185,0.1186 0.1594,0.1933 0.0395,0.0734 0.0593,0.1623 0.0593,0.2639 0,0.1298 -0.0268,0.2413 -0.0818,0.333 -0.0565,0.0918 -0.127,0.1694 -0.2159,0.2301 -0.0875,0.0606 -0.1877,0.1044 -0.2992,0.134 -0.1115,0.0282 -0.2244,0.0438 -0.3373,0.0438 -0.0719,0 -0.1439,-0.0057 -0.2173,-0.017 -0.0734,-0.0113 -0.1411,-0.024 -0.2046,-0.0367 -0.0578,-0.0141 -0.1129,-0.0282 -0.1665,-0.0395 -0.055,-0.0127 -0.1129,-0.0211 -0.1764,-0.0268 -0.0028,-0.048 -0.007,-0.1072 -0.0141,-0.1778 -0.0071,-0.072 -0.0141,-0.1453 -0.0226,-0.2201 -0.0084,-0.0734 -0.0183,-0.1454 -0.0268,-0.2131 -0.0099,-0.0663 -0.0212,-0.1199 -0.031,-0.158l0.1397 -0.0381c0.0395,0.0945 0.0818,0.1848 0.1284,0.2737 0.0465,0.0875 0.103,0.1651 0.1679,0.2328 0.0649,0.0678 0.1383,0.1228 0.2201,0.1637 0.0833,0.041 0.1807,0.0621 0.2935,0.0621 0.1087,0 0.2032,-0.0296 0.2865,-0.0889 0.0819,-0.0592 0.1242,-0.1496 0.1242,-0.2709 0,-0.0692 -0.0169,-0.1298 -0.048,-0.1835 -0.0324,-0.0536 -0.0748,-0.1016 -0.1284,-0.1425 -0.0536,-0.0423 -0.1143,-0.079 -0.182,-0.11 -0.0678,-0.0325 -0.1383,-0.0635 -0.2131,-0.0932 -0.0847,-0.0353 -0.1694,-0.0734 -0.254,-0.1143 -0.0847,-0.0395 -0.1595,-0.0861 -0.2258,-0.1397 -0.0663,-0.0536 -0.1199,-0.1185 -0.1609,-0.1919 -0.0409,-0.0748 -0.0621,-0.1651 -0.0621,-0.2695 0,-0.127 0.0269,-0.2357 0.0805,-0.326 0.0536,-0.0917 0.1227,-0.1665 0.2074,-0.2258 0.0833,-0.0592 0.1792,-0.103 0.2865,-0.1298 0.1086,-0.0282 0.2159,-0.0423 0.3231,-0.0423 0.1101,0 0.2201,0.0113 0.3288,0.0338 0.1087,0.0226 0.2314,0.0353 0.3697,0.041 -0.0084,0.0889 -0.0141,0.1721 -0.0169,0.2497 -0.0028,0.0791 -0.0042,0.1637 -0.0042,0.2554l0 0.2018 -0.1355 0.0043z"/>
  <path class="fil0" d="M146.137 173.525l0 1.6087c0,0.0691 0.0071,0.1242 0.0198,0.1651 0.0141,0.0409 0.0409,0.072 0.079,0.0931 0.0381,0.0212 0.0932,0.0353 0.1637,0.0438 0.0692,0.0084 0.1623,0.0141 0.278,0.0169l-0.0113 0.1524c-0.0451,0 -0.0973,0 -0.158,-0.0014 -0.0607,-0.0014 -0.1256,-0.0028 -0.1934,-0.0028 -0.0691,0 -0.1411,0 -0.213,-0.0014 -0.0734,-0.0015 -0.1426,-0.0029 -0.2089,-0.0029 -0.1072,0 -0.2159,0.0014 -0.3231,0.0043 -0.1073,0.0028 -0.199,0.0042 -0.2766,0.0042l-0.0127 -0.1326c0.0917,-0.0085 0.1637,-0.0198 0.2173,-0.0353 0.0536,-0.0141 0.0946,-0.0395 0.1242,-0.0762 0.0282,-0.0353 0.048,-0.0847 0.0578,-0.1468 0.0099,-0.0621 0.0142,-0.1453 0.0142,-0.2497l0 -1.4394 -0.3923 0 -0.0297 -0.0282 0.017 -0.1566 0.405 -0.0339 0 -0.6449c0,-0.2596 0.0381,-0.4854 0.1114,-0.6773 0.0748,-0.1933 0.1778,-0.3556 0.3105,-0.4883 0.1157,-0.1157 0.2455,-0.2018 0.388,-0.2568 0.144,-0.055 0.2978,-0.0818 0.4643,-0.0818 0.0409,0 0.0875,0.0042 0.1425,0.0112 0.0536,0.0085 0.103,0.024 0.151,0.0438 0.0466,0.0212 0.0861,0.0494 0.1185,0.0875 0.0339,0.0367 0.0508,0.0832 0.0508,0.1383 0,0.0875 -0.0225,0.151 -0.0691,0.1905 -0.0452,0.0381 -0.1101,0.0719 -0.1961,0.103 -0.0692,-0.0635 -0.1524,-0.12 -0.2526,-0.1679 -0.0988,-0.048 -0.1976,-0.072 -0.2978,-0.072 -0.055,0 -0.1072,0.0085 -0.158,0.0268 -0.0508,0.0184 -0.096,0.0466 -0.1355,0.0847 -0.0466,0.0465 -0.0818,0.1044 -0.1072,0.1735 -0.024,0.0692 -0.0424,0.144 -0.0551,0.223 -0.0127,0.0804 -0.0197,0.1637 -0.0211,0.2512 -0.0015,0.0861 -0.0015,0.1693 -0.0015,0.2497l0 0.7973 0.6816 -0.0127 0.0325 0.0297 -0.0113 0.2102 -0.7028 0z"/>
  <path id="1" class="fil0" d="M147.063 174.452c0,-0.1764 0.0324,-0.3443 0.0973,-0.5009 0.0649,-0.1567 0.1524,-0.2935 0.2653,-0.4093 0.1115,-0.1157 0.2427,-0.2074 0.3937,-0.2751 0.1524,-0.0678 0.3147,-0.1016 0.4883,-0.1016 0.1876,0 0.3584,0.0324 0.5122,0.0973 0.1552,0.065 0.2865,0.1539 0.3951,0.2653 0.1087,0.1115 0.1933,0.2427 0.2526,0.3923 0.0593,0.151 0.0889,0.3105 0.0889,0.4812 0,0.1792 -0.0325,0.3472 -0.0974,0.5024 -0.0649,0.1566 -0.1524,0.2921 -0.2653,0.4078 -0.1114,0.1157 -0.2427,0.2074 -0.3965,0.2752 -0.1524,0.0677 -0.3161,0.1016 -0.4896,0.1016 -0.1877,0 -0.3571,-0.0325 -0.5109,-0.0974 -0.1524,-0.0649 -0.2836,-0.1538 -0.3923,-0.2653 -0.1086,-0.1115 -0.1933,-0.2427 -0.2525,-0.3923 -0.0593,-0.151 -0.0889,-0.3104 -0.0889,-0.4812zm1.2982 1.033c0.1213,0 0.2258,-0.0283 0.3118,-0.0861 0.0875,-0.0593 0.1595,-0.1327 0.2159,-0.2244 0.0565,-0.0903 0.0974,-0.1919 0.1242,-0.3048 0.0254,-0.1143 0.0381,-0.2272 0.0381,-0.3401 0,-0.1312 -0.0141,-0.2667 -0.0423,-0.405 -0.0296,-0.1368 -0.0762,-0.2624 -0.1397,-0.3739 -0.0621,-0.1115 -0.1454,-0.2032 -0.2455,-0.2752 -0.1002,-0.0719 -0.223,-0.1072 -0.3655,-0.1072 -0.1242,0 -0.23,0.0282 -0.3161,0.0846 -0.0875,0.0565 -0.1581,0.1299 -0.2131,0.2216 -0.055,0.0903 -0.096,0.1933 -0.1228,0.3062 -0.0254,0.1129 -0.0381,0.2258 -0.0381,0.3387 0,0.127 0.0141,0.2582 0.0452,0.3965 0.0296,0.1383 0.0776,0.2639 0.1397,0.3768 0.0635,0.1129 0.1453,0.206 0.2469,0.2808 0.1002,0.0748 0.2216,0.1115 0.3613,0.1115z"/>
  <path id="12" class="fil0" d="M151.21 175.605c-0.0889,0 -0.1877,-0.0014 -0.2978,-0.0042 -0.11,-0.0029 -0.2314,-0.0043 -0.364,-0.0043 -0.1073,0 -0.2145,0.0014 -0.3204,0.0043 -0.1058,0.0028 -0.1975,0.0042 -0.2751,0.0042l-0.0127 -0.1326c0.0945,-0.0085 0.1693,-0.0198 0.2257,-0.0367 0.0565,-0.017 0.1002,-0.0424 0.1327,-0.0762 0.031,-0.0353 0.0522,-0.0833 0.0621,-0.1454 0.0084,-0.0621 0.0141,-0.1453 0.0141,-0.2497l0 -1.0711c0,-0.0776 -0.0042,-0.1383 -0.0127,-0.182 -0.0085,-0.0438 -0.0254,-0.079 -0.0522,-0.1059 -0.0254,-0.0254 -0.0635,-0.0451 -0.1157,-0.0592 -0.0508,-0.0141 -0.1172,-0.0282 -0.2004,-0.0409l-0.0113 -0.1158c0.0677,-0.0141 0.1425,-0.031 0.2201,-0.0493 0.0791,-0.0198 0.1553,-0.0396 0.23,-0.0607 0.0748,-0.0212 0.144,-0.0409 0.2089,-0.0593 0.0649,-0.0197 0.1171,-0.0381 0.1594,-0.055l0.0494 0.0338c-0.0084,0.0579 -0.0155,0.1143 -0.0211,0.1708 -0.0057,0.0578 -0.0085,0.1143 -0.0085,0.1721 0.1496,-0.1185 0.3076,-0.2102 0.4741,-0.2765 0.1666,-0.0664 0.326,-0.1002 0.477,-0.1002 0.0988,0 0.1919,0.0169 0.2794,0.048 0.0861,0.0324 0.1623,0.0818 0.2258,0.1509 0.0621,0.0692 0.1129,0.1567 0.1496,0.2625 0.0381,0.1058 0.0564,0.2357 0.0564,0.3867l0 1.1204c0,0.0663 0.0042,0.1185 0.0127,0.1594 0.0085,0.0396 0.0254,0.0706 0.0508,0.0932 0.0268,0.0211 0.0663,0.0367 0.1185,0.0451 0.0522,0.0085 0.1228,0.0156 0.2103,0.0212l-0.0085 0.1524c-0.0875,0 -0.1848,-0.0014 -0.2907,-0.0042 -0.1058,-0.0029 -0.2257,-0.0043 -0.357,-0.0043 -0.1086,0 -0.2102,0.0014 -0.309,0.0043 -0.0974,0.0028 -0.1849,0.0042 -0.2625,0.0042l-0.0127 -0.1326c0.0861,-0.0085 0.1552,-0.0184 0.2075,-0.0325 0.0522,-0.0141 0.0917,-0.0367 0.1199,-0.0691 0.0268,-0.0311 0.0452,-0.0762 0.0536,-0.1355 0.0085,-0.0593 0.0127,-0.1411 0.0127,-0.247l0 -0.872c0,-0.2202 -0.0494,-0.3796 -0.1467,-0.477 -0.0988,-0.0974 -0.2216,-0.1467 -0.3697,-0.1467 -0.1059,0 -0.2174,0.0211 -0.3359,0.0635 -0.1185,0.0437 -0.2371,0.103 -0.3556,0.1806l0 1.397c0,0.0663 0.0042,0.1185 0.0113,0.1594 0.0056,0.0396 0.024,0.0706 0.0508,0.0932 0.0282,0.0211 0.0691,0.0367 0.1228,0.0451 0.0536,0.0085 0.1255,0.0156 0.2159,0.0212l-0.0113 0.1524z"/>
  <path id="123" class="fil0" d="M153.95 172.381c-0.0056,0.0663 -0.0113,0.1425 -0.0141,0.2286 -0.0042,0.0875 -0.0085,0.1736 -0.0113,0.2611 -0.0028,0.0874 -0.0042,0.1679 -0.0056,0.2441 -0.0014,0.0762 -0.0028,0.1369 -0.0028,0.1834l0.7069 -0.0127 0.0339 0.0297 -0.0127 0.2102 -0.7281 0 0 1.3321c0,0.1073 0.0112,0.1947 0.031,0.2639 0.0212,0.0691 0.0494,0.1242 0.0875,0.1651 0.0367,0.0423 0.0804,0.0705 0.1298,0.0847 0.0494,0.0155 0.103,0.0239 0.1609,0.0239 0.0607,0 0.1242,-0.007 0.1905,-0.0211 0.0663,-0.0141 0.1312,-0.0282 0.1947,-0.0409l0.0282 0.1481c-0.1072,0.0522 -0.2229,0.0974 -0.3471,0.1341 -0.1242,0.0381 -0.2441,0.0564 -0.3598,0.0564 -0.0791,0 -0.1538,-0.0099 -0.2202,-0.031 -0.0677,-0.0212 -0.1284,-0.0565 -0.1806,-0.1059 -0.0522,-0.0493 -0.0931,-0.1143 -0.1213,-0.1961 -0.0297,-0.0818 -0.0438,-0.1806 -0.0438,-0.2992l0 -0.1114c0,-0.0508 0,-0.1299 0.0014,-0.2399 0.0014,-0.1115 0.0028,-0.2583 0.0028,-0.4431l0 -0.7197 -0.3725 0 -0.0282 -0.0282 0.0155 -0.1609 0.3852 -0.0296 0 -0.3429c0,-0.0692 -0.0014,-0.1397 -0.0028,-0.2103 -0.0014,-0.0719 -0.0014,-0.1411 -0.0014,-0.2074 0.0409,-0.0169 0.0847,-0.0339 0.1284,-0.0522 0.0438,-0.0169 0.0861,-0.0353 0.1284,-0.0508 0.041,-0.0169 0.0776,-0.0325 0.1087,-0.048 0.0324,-0.0155 0.0564,-0.0282 0.0734,-0.0395l0.0451 0.0254z"/>
  <path id="1234" class="fil0" d="M157.1 175.147c-0.0889,0.1157 -0.1792,0.2088 -0.2737,0.2794 -0.0932,0.0691 -0.1835,0.1242 -0.2682,0.1623 -0.086,0.0395 -0.1636,0.0649 -0.2356,0.079 -0.072,0.0141 -0.1284,0.0212 -0.1694,0.0212 -0.1707,0 -0.3287,-0.0325 -0.4713,-0.096 -0.1439,-0.0635 -0.2667,-0.1496 -0.3697,-0.2596 -0.1044,-0.1101 -0.1834,-0.2399 -0.2399,-0.3867 -0.0564,-0.1482 -0.0846,-0.3048 -0.0846,-0.4699 0,-0.1848 0.0338,-0.3556 0.1002,-0.5151 0.0677,-0.158 0.158,-0.2963 0.2695,-0.4148 0.1115,-0.1186 0.2399,-0.2117 0.3866,-0.2794 0.1454,-0.0678 0.2964,-0.1016 0.4502,-0.1016 0.1242,0 0.2413,0.0211 0.3542,0.0607 0.1114,0.0395 0.2088,0.0973 0.2907,0.1721 0.0832,0.0734 0.1495,0.1637 0.1989,0.2681 0.0494,0.1044 0.0734,0.2216 0.0734,0.3514l0 0.0578 -0.0028 0.0579c-0.0141,0.0748 -0.0536,0.1115 -0.1157,0.1115l-1.5636 0c0.0029,0.1905 0.0325,0.3528 0.0875,0.4882 0.0551,0.1355 0.1256,0.2456 0.2131,0.3302 0.0861,0.0861 0.1835,0.1482 0.2907,0.1891 0.1072,0.0395 0.2131,0.0593 0.3189,0.0593 0.1129,0 0.2202,-0.0198 0.3218,-0.0579 0.1016,-0.0381 0.2102,-0.1143 0.3231,-0.2272l0.1157 0.12zm-0.6124 -1.088c0.055,0 0.0917,-0.0099 0.1072,-0.031 0.017,-0.0198 0.0254,-0.0551 0.0254,-0.1045 0,-0.0747 -0.0127,-0.1453 -0.0381,-0.2116 -0.024,-0.0663 -0.0592,-0.1242 -0.1072,-0.1736 -0.0466,-0.0494 -0.1044,-0.0875 -0.1736,-0.1157 -0.0691,-0.0268 -0.1453,-0.0409 -0.2314,-0.0409 -0.0663,0 -0.1327,0.0155 -0.1976,0.0451 -0.0663,0.0311 -0.1284,0.0748 -0.1862,0.1327 -0.0579,0.0578 -0.1087,0.1284 -0.151,0.2131 -0.0424,0.0832 -0.072,0.1792 -0.0889,0.2864l1.0414 0z"/>
 </g>
</svg>
